<svg xmlns="http://www.w3.org/2000/svg" xmlns:xlink="http://www.w3.org/1999/xlink" width="1600" zoomAndPan="magnify" viewBox="0 0 1200 225" height="300" preserveAspectRatio="xMidYMid meet" version="1.0"><defs><clipPath id="fade7791a5"><path d="M 4.808594 15.75 L 208 15.75 L 208 209 L 4.808594 209 Z M 4.808594 15.75 " clip-rule="nonzero"/></clipPath><clipPath id="f3bffd7cdf"><path d="M 251 15.75 L 455 15.75 L 455 209 L 251 209 Z M 251 15.75 " clip-rule="nonzero"/></clipPath><clipPath id="5fd27046bc"><path d="M 745 16 L 949 16 L 949 209.25 L 745 209.25 Z M 745 16 " clip-rule="nonzero"/></clipPath><clipPath id="5b0b829414"><path d="M 992 16 L 1195.191406 16 L 1195.191406 209.25 L 992 209.25 Z M 992 16 " clip-rule="nonzero"/></clipPath></defs><g clip-path="url(#fade7791a5)"><path fill="#ffcd63" d="M 106.167969 15.738281 L 130.101562 89.386719 L 207.527344 89.386719 L 144.882812 134.898438 L 168.8125 208.542969 L 106.167969 163.035156 L 43.523438 208.542969 L 67.457031 134.898438 L 4.808594 89.386719 L 82.246094 89.386719 L 106.167969 15.738281 " fill-opacity="1" fill-rule="nonzero"/></g><g clip-path="url(#f3bffd7cdf)"><path fill="#ffcd63" d="M 353.089844 15.929688 L 377.011719 89.574219 L 454.449219 89.574219 L 391.800781 135.085938 L 415.726562 208.722656 L 353.089844 163.210938 L 290.445312 208.722656 L 314.367188 135.085938 L 251.722656 89.574219 L 329.15625 89.574219 L 353.089844 15.929688 " fill-opacity="1" fill-rule="nonzero"/></g><path fill="#ffcd63" d="M 600 16.105469 L 623.921875 89.753906 L 701.359375 89.753906 L 638.714844 135.261719 L 662.644531 208.910156 L 600 163.398438 L 537.355469 208.910156 L 561.285156 135.261719 L 498.640625 89.753906 L 576.066406 89.753906 L 600 16.105469 " fill-opacity="1" fill-rule="nonzero"/><g clip-path="url(#5fd27046bc)"><path fill="#ffcd63" d="M 846.910156 16.292969 L 870.84375 89.929688 L 948.277344 89.929688 L 885.632812 135.449219 L 909.554688 209.085938 L 846.910156 163.578125 L 784.273438 209.085938 L 808.199219 135.449219 L 745.550781 89.929688 L 822.988281 89.929688 L 846.910156 16.292969 " fill-opacity="1" fill-rule="nonzero"/></g><g clip-path="url(#5b0b829414)"><path fill="#ffcd63" d="M 1093.832031 16.472656 L 1117.753906 90.117188 L 1195.191406 90.117188 L 1132.542969 135.628906 L 1156.476562 209.277344 L 1093.832031 163.757812 L 1031.1875 209.277344 L 1055.109375 135.628906 L 992.472656 90.117188 L 1069.898438 90.117188 L 1093.832031 16.472656 " fill-opacity="1" fill-rule="nonzero"/></g></svg>