<svg xmlns="http://www.w3.org/2000/svg" xmlns:xlink="http://www.w3.org/1999/xlink" width="240" zoomAndPan="magnify" viewBox="0 0 180 179.999997" height="240" preserveAspectRatio="xMidYMid meet" version="1.0"><defs><clipPath id="20d82636f1"><path d="M 0.613281 0 L 179.472656 0 L 179.472656 179.914062 L 0.613281 179.914062 Z M 0.613281 0 " clip-rule="nonzero"/></clipPath></defs><rect x="-18" width="216" fill="#ffffff" y="-18" height="215.999996" fill-opacity="1"/><rect x="-18" width="216" fill="#ffffff" y="-18" height="215.999996" fill-opacity="1"/><g clip-path="url(#20d82636f1)"><path fill="#e3664f" d="M 90.097656 129.796875 C 95.867188 129.878906 100.492188 134.617188 100.429688 140.382812 C 100.429688 140.496094 100.429688 140.609375 100.429688 140.703125 C 100.671875 146.488281 96.21875 151.371094 90.4375 151.628906 C 84.667969 151.882812 79.753906 147.414062 79.511719 141.632812 C 79.480469 141.328125 79.480469 141.027344 79.511719 140.703125 C 79.257812 134.9375 83.742188 130.054688 89.523438 129.8125 C 89.714844 129.796875 89.890625 129.796875 90.097656 129.796875 Z M 89.585938 33.394531 C 89.84375 33.378906 90.117188 33.378906 90.371094 33.394531 C 96.84375 33.585938 101.917969 39 101.742188 45.472656 C 101.742188 45.582031 101.710938 45.710938 101.710938 45.824219 L 98.109375 108.433594 L 98.074219 108.433594 C 97.738281 112.882812 93.832031 116.183594 89.363281 115.832031 C 85.4375 115.511719 82.300781 112.386719 81.980469 108.433594 L 78.3125 45.824219 C 77.910156 39.367188 82.84375 33.8125 89.296875 33.410156 C 89.410156 33.410156 89.523438 33.394531 89.652344 33.394531 Z M 87.746094 0.03125 C 39.132812 1.28125 0.4375 41.144531 0.613281 89.773438 C 0.214844 139.167969 39.917969 179.511719 89.316406 179.914062 C 138.710938 180.3125 179.070312 140.59375 179.472656 91.214844 C 179.472656 90.734375 179.472656 90.253906 179.472656 89.773438 C 179.664062 40.394531 139.75 0.191406 90.386719 0.015625 C 89.523438 0 88.640625 0.015625 87.777344 0.03125 L 87.746094 0.03125 " fill-opacity="1" fill-rule="nonzero"/></g></svg>