<svg xmlns="http://www.w3.org/2000/svg" xmlns:xlink="http://www.w3.org/1999/xlink" width="1080" zoomAndPan="magnify" viewBox="0 0 810 809.999993" height="1080" preserveAspectRatio="xMidYMid meet" version="1.0"><defs><clipPath id="edb9562413"><path d="M 3.269531 339.695312 L 141 339.695312 L 141 470 L 3.269531 470 Z M 3.269531 339.695312 " clip-rule="nonzero"/></clipPath><clipPath id="9176ccb413"><path d="M 169.089844 339.695312 L 307 339.695312 L 307 470 L 169.089844 470 Z M 169.089844 339.695312 " clip-rule="nonzero"/></clipPath><clipPath id="b1b4c70da0"><path d="M 336 339.695312 L 474 339.695312 L 474 470.195312 L 336 470.195312 Z M 336 339.695312 " clip-rule="nonzero"/></clipPath><clipPath id="8e91467fa9"><path d="M 503 340 L 640.910156 340 L 640.910156 470.195312 L 503 470.195312 Z M 503 340 " clip-rule="nonzero"/></clipPath><clipPath id="373a3e099f"><path d="M 669 340 L 806.730469 340 L 806.730469 470.195312 L 669 470.195312 Z M 669 340 " clip-rule="nonzero"/></clipPath></defs><g clip-path="url(#edb9562413)"><path fill="#ffcd63" d="M 71.683594 339.6875 L 87.835938 389.394531 L 140.09375 389.394531 L 97.8125 420.113281 L 113.964844 469.824219 L 71.683594 439.105469 L 29.398438 469.824219 L 45.550781 420.113281 L 3.269531 389.394531 L 55.535156 389.394531 L 71.683594 339.6875 " fill-opacity="1" fill-rule="nonzero"/></g><g clip-path="url(#9176ccb413)"><path fill="#ffcd63" d="M 238.34375 339.8125 L 254.492188 389.523438 L 306.757812 389.523438 L 264.472656 420.242188 L 280.621094 469.941406 L 238.34375 439.226562 L 196.0625 469.941406 L 212.207031 420.242188 L 169.925781 389.523438 L 222.191406 389.523438 L 238.34375 339.8125 " fill-opacity="1" fill-rule="nonzero"/></g><g clip-path="url(#b1b4c70da0)"><path fill="#ffcd63" d="M 405 339.933594 L 421.148438 389.644531 L 473.414062 389.644531 L 431.128906 420.359375 L 447.285156 470.070312 L 405 439.351562 L 362.714844 470.070312 L 378.871094 420.359375 L 336.585938 389.644531 L 388.847656 389.644531 L 405 339.933594 " fill-opacity="1" fill-rule="nonzero"/></g><g clip-path="url(#8e91467fa9)"><path fill="#ffcd63" d="M 571.65625 340.0625 L 587.808594 389.761719 L 640.074219 389.761719 L 597.792969 420.488281 L 613.9375 470.191406 L 571.65625 439.472656 L 529.378906 470.191406 L 545.527344 420.488281 L 503.242188 389.761719 L 555.507812 389.761719 L 571.65625 340.0625 " fill-opacity="1" fill-rule="nonzero"/></g><g clip-path="url(#373a3e099f)"><path fill="#ffcd63" d="M 738.316406 340.179688 L 754.464844 389.890625 L 806.730469 389.890625 L 764.449219 420.609375 L 780.601562 470.316406 L 738.316406 439.59375 L 696.035156 470.316406 L 712.179688 420.609375 L 669.90625 389.890625 L 722.164062 389.890625 L 738.316406 340.179688 " fill-opacity="1" fill-rule="nonzero"/></g></svg>