<svg xmlns="http://www.w3.org/2000/svg" xmlns:xlink="http://www.w3.org/1999/xlink" width="240" zoomAndPan="magnify" viewBox="0 0 180 187.92" height="240" preserveAspectRatio="xMidYMid meet" version="1.0"><defs><clipPath id="8becf4ffe4"><path d="M 0.0390625 0 L 179.960938 0 L 179.960938 179.921875 L 0.0390625 179.921875 Z M 0.0390625 0 " clip-rule="nonzero"/></clipPath><clipPath id="65a854f6ec"><path d="M 0.0390625 42 L 179.960938 42 L 179.960938 149 L 0.0390625 149 Z M 0.0390625 42 " clip-rule="nonzero"/></clipPath></defs><g clip-path="url(#8becf4ffe4)"><path fill="#ffffff" d="M 0.0390625 0 L 179.960938 0 L 179.960938 179.921875 L 0.0390625 179.921875 Z M 0.0390625 0 " fill-opacity="1" fill-rule="nonzero"/><path fill="#ffffff" d="M 0.0390625 0 L 179.960938 0 L 179.960938 179.921875 L 0.0390625 179.921875 Z M 0.0390625 0 " fill-opacity="1" fill-rule="nonzero"/></g><g clip-path="url(#65a854f6ec)"><path fill="#0a24e3" d="M 0.0390625 42.304688 L 179.960938 42.304688 L 179.960938 148.113281 L 0.0390625 148.113281 Z M 0.0390625 42.304688 " fill-opacity="1" fill-rule="nonzero"/></g><path fill="#ffcd63" d="M 92.769531 70.414062 L 163.183594 70.414062 L 163.183594 78.855469 L 92.769531 78.855469 Z M 92.769531 70.414062 " fill-opacity="1" fill-rule="nonzero"/><path fill="#ffcd63" d="M 92.769531 90.992188 L 163.183594 90.992188 L 163.183594 99.433594 L 92.769531 99.433594 Z M 92.769531 90.992188 " fill-opacity="1" fill-rule="nonzero"/><path fill="#ffcd63" d="M 92.769531 111.566406 L 163.183594 111.566406 L 163.183594 120.007812 L 92.769531 120.007812 Z M 92.769531 111.566406 " fill-opacity="1" fill-rule="nonzero"/><path fill="#e3664f" d="M 70.453125 42.453125 C 70.453125 31.65625 79.203125 22.90625 90 22.90625 C 100.796875 22.90625 109.546875 31.65625 109.546875 42.453125 Z M 70.453125 42.453125 " fill-opacity="1" fill-rule="nonzero"/><path fill="#f7f5f2" d="M 45.589844 91.75 L 56.15625 110.066406 L 66.734375 128.371094 L 24.441406 128.371094 L 35.019531 110.066406 Z M 45.589844 91.75 " fill-opacity="1" fill-rule="nonzero"/><path fill="#e3664f" d="M 60.765625 77.222656 C 60.765625 78.21875 60.667969 79.207031 60.472656 80.183594 C 60.28125 81.160156 59.992188 82.109375 59.609375 83.03125 C 59.230469 83.953125 58.761719 84.828125 58.207031 85.65625 C 57.652344 86.484375 57.023438 87.25 56.320312 87.953125 C 55.617188 88.660156 54.847656 89.289062 54.019531 89.84375 C 53.191406 90.394531 52.316406 90.863281 51.398438 91.246094 C 50.476562 91.625 49.527344 91.914062 48.550781 92.109375 C 47.574219 92.300781 46.585938 92.398438 45.589844 92.398438 C 44.59375 92.398438 43.605469 92.300781 42.628906 92.109375 C 41.652344 91.914062 40.703125 91.625 39.78125 91.246094 C 38.859375 90.863281 37.984375 90.394531 37.15625 89.84375 C 36.328125 89.289062 35.5625 88.660156 34.859375 87.953125 C 34.152344 87.25 33.523438 86.484375 32.96875 85.65625 C 32.417969 84.828125 31.949219 83.953125 31.566406 83.03125 C 31.1875 82.109375 30.898438 81.160156 30.703125 80.183594 C 30.507812 79.207031 30.414062 78.21875 30.414062 77.222656 C 30.414062 76.226562 30.507812 75.238281 30.703125 74.261719 C 30.898438 73.285156 31.1875 72.335938 31.566406 71.414062 C 31.949219 70.496094 32.417969 69.621094 32.96875 68.792969 C 33.523438 67.964844 34.152344 67.195312 34.859375 66.492188 C 35.5625 65.785156 36.328125 65.15625 37.15625 64.605469 C 37.984375 64.050781 38.859375 63.582031 39.78125 63.203125 C 40.703125 62.820312 41.652344 62.53125 42.628906 62.339844 C 43.605469 62.144531 44.59375 62.046875 45.589844 62.046875 C 46.585938 62.046875 47.574219 62.144531 48.550781 62.339844 C 49.527344 62.53125 50.476562 62.820312 51.398438 63.203125 C 52.316406 63.582031 53.191406 64.050781 54.019531 64.605469 C 54.847656 65.15625 55.617188 65.785156 56.320312 66.492188 C 57.023438 67.195312 57.652344 67.964844 58.207031 68.792969 C 58.761719 69.621094 59.230469 70.496094 59.609375 71.414062 C 59.992188 72.335938 60.28125 73.285156 60.472656 74.261719 C 60.667969 75.238281 60.765625 76.226562 60.765625 77.222656 Z M 60.765625 77.222656 " fill-opacity="1" fill-rule="nonzero"/></svg>