<svg xmlns="http://www.w3.org/2000/svg" xmlns:xlink="http://www.w3.org/1999/xlink" width="240" zoomAndPan="magnify" viewBox="0 0 180 187.92" height="240" preserveAspectRatio="xMidYMid meet" version="1.0"><defs><clipPath id="5ec5986f44"><path d="M 0.0390625 0 L 179.960938 0 L 179.960938 179.921875 L 0.0390625 179.921875 Z M 0.0390625 0 " clip-rule="nonzero"/></clipPath><clipPath id="3244a8a341"><path d="M 0.0390625 19 L 179.960938 19 L 179.960938 146 L 0.0390625 146 Z M 0.0390625 19 " clip-rule="nonzero"/></clipPath></defs><g clip-path="url(#5ec5986f44)"><path fill="#ffffff" d="M 0.0390625 0 L 179.960938 0 L 179.960938 179.921875 L 0.0390625 179.921875 Z M 0.0390625 0 " fill-opacity="1" fill-rule="nonzero"/><path fill="#ffffff" d="M 0.0390625 0 L 179.960938 0 L 179.960938 179.921875 L 0.0390625 179.921875 Z M 0.0390625 0 " fill-opacity="1" fill-rule="nonzero"/></g><g clip-path="url(#3244a8a341)"><path fill="#0a24e3" d="M 0.0390625 19.75 L 179.960938 19.75 L 179.960938 145.996094 L 0.0390625 145.996094 Z M 0.0390625 19.75 " fill-opacity="1" fill-rule="nonzero"/></g><path fill="#e3664f" d="M 40.640625 170.296875 C 40.640625 143.039062 62.742188 120.9375 90 120.9375 C 117.257812 120.9375 139.359375 143.039062 139.359375 170.296875 Z M 40.640625 170.296875 " fill-opacity="1" fill-rule="nonzero"/><path fill="#ffcd63" d="M 30.59375 49.089844 L 149.40625 49.089844 L 149.40625 66.960938 L 30.59375 66.960938 Z M 30.59375 49.089844 " fill-opacity="1" fill-rule="nonzero"/><path fill="#ffcd63" d="M 30.59375 83.273438 L 149.40625 83.273438 L 149.40625 101.148438 L 30.59375 101.148438 Z M 30.59375 83.273438 " fill-opacity="1" fill-rule="nonzero"/></svg>