<svg xmlns="http://www.w3.org/2000/svg" xmlns:xlink="http://www.w3.org/1999/xlink" width="1080" zoomAndPan="magnify" viewBox="0 0 810 225" height="300" preserveAspectRatio="xMidYMid meet" version="1.0"><defs><clipPath id="d908ae9c3c"><path d="M 3.269531 47.195312 L 141 47.195312 L 141 177.695312 L 3.269531 177.695312 Z M 3.269531 47.195312 " clip-rule="nonzero"/></clipPath><clipPath id="11c8c42821"><path d="M 169.089844 47.195312 L 307 47.195312 L 307 177.695312 L 169.089844 177.695312 Z M 169.089844 47.195312 " clip-rule="nonzero"/></clipPath><clipPath id="48ae5ca9a5"><path d="M 336 47.195312 L 474 47.195312 L 474 177.695312 L 336 177.695312 Z M 336 47.195312 " clip-rule="nonzero"/></clipPath><clipPath id="1f7ac289d6"><path d="M 503 47.195312 L 640.910156 47.195312 L 640.910156 177.695312 L 503 177.695312 Z M 503 47.195312 " clip-rule="nonzero"/></clipPath><clipPath id="76c2bc0e9d"><path d="M 669 47.195312 L 806.730469 47.195312 L 806.730469 177.695312 L 669 177.695312 Z M 669 47.195312 " clip-rule="nonzero"/></clipPath></defs><g clip-path="url(#d908ae9c3c)"><path fill="#ffcd63" d="M 71.683594 47.1875 L 87.835938 96.894531 L 140.09375 96.894531 L 97.8125 127.613281 L 113.964844 177.324219 L 71.683594 146.605469 L 29.398438 177.324219 L 45.550781 127.613281 L 3.269531 96.894531 L 55.535156 96.894531 L 71.683594 47.1875 " fill-opacity="1" fill-rule="nonzero"/></g><g clip-path="url(#11c8c42821)"><path fill="#ffcd63" d="M 238.34375 47.3125 L 254.492188 97.023438 L 306.757812 97.023438 L 264.472656 127.742188 L 280.621094 177.441406 L 238.34375 146.726562 L 196.0625 177.441406 L 212.207031 127.742188 L 169.925781 97.023438 L 222.191406 97.023438 L 238.34375 47.3125 " fill-opacity="1" fill-rule="nonzero"/></g><g clip-path="url(#48ae5ca9a5)"><path fill="#ffcd63" d="M 405 47.433594 L 421.148438 97.144531 L 473.414062 97.144531 L 431.128906 127.859375 L 447.285156 177.570312 L 405 146.851562 L 362.714844 177.570312 L 378.871094 127.859375 L 336.585938 97.144531 L 388.847656 97.144531 L 405 47.433594 " fill-opacity="1" fill-rule="nonzero"/></g><g clip-path="url(#1f7ac289d6)"><path fill="#ffcd63" d="M 571.65625 47.5625 L 587.808594 97.261719 L 640.074219 97.261719 L 597.792969 127.988281 L 613.9375 177.691406 L 571.65625 146.972656 L 529.378906 177.691406 L 545.527344 127.988281 L 503.242188 97.261719 L 555.507812 97.261719 L 571.65625 47.5625 " fill-opacity="1" fill-rule="nonzero"/></g><g clip-path="url(#76c2bc0e9d)"><path fill="#ffcd63" d="M 738.316406 47.679688 L 754.464844 97.390625 L 806.730469 97.390625 L 764.449219 128.109375 L 780.601562 177.816406 L 738.316406 147.09375 L 696.035156 177.816406 L 712.179688 128.109375 L 669.90625 97.390625 L 722.164062 97.390625 L 738.316406 47.679688 " fill-opacity="1" fill-rule="nonzero"/></g></svg>