<svg xmlns="http://www.w3.org/2000/svg" xmlns:xlink="http://www.w3.org/1999/xlink" width="240" zoomAndPan="magnify" viewBox="0 0 180 187.92" height="240" preserveAspectRatio="xMidYMid meet" version="1.0"><defs><clipPath id="3413636785"><path d="M 0.0390625 0 L 179.960938 0 L 179.960938 179.921875 L 0.0390625 179.921875 Z M 0.0390625 0 " clip-rule="nonzero"/></clipPath><clipPath id="0253066ed8"><path d="M 86 85 L 116 85 L 116 115 L 86 115 Z M 86 85 " clip-rule="nonzero"/></clipPath><clipPath id="507704d87e"><path d="M 98.265625 85.144531 L 115.675781 102.554688 L 104.195312 114.035156 L 86.785156 96.625 Z M 98.265625 85.144531 " clip-rule="nonzero"/></clipPath><clipPath id="1a0439b7b3"><path d="M 0.640625 0 L 29.910156 0 L 29.910156 29.191406 L 0.640625 29.191406 Z M 0.640625 0 " clip-rule="nonzero"/></clipPath><clipPath id="dc77b01a4f"><path d="M 12.265625 0.144531 L 29.675781 17.554688 L 18.195312 29.035156 L 0.785156 11.625 Z M 12.265625 0.144531 " clip-rule="nonzero"/></clipPath><clipPath id="481a323d3b"><rect x="0" width="30" y="0" height="30"/></clipPath><clipPath id="07a8b7a851"><path d="M 100 98 L 179.960938 98 L 179.960938 179 L 100 179 Z M 100 98 " clip-rule="nonzero"/></clipPath><clipPath id="970af3a4ea"><path d="M 117.699219 98.65625 L 179.960938 160.914062 L 162.28125 178.59375 L 100.023438 116.335938 Z M 117.699219 98.65625 " clip-rule="nonzero"/></clipPath><clipPath id="b1f49feadd"><path d="M 0 0.597656 L 79.960938 0.597656 L 79.960938 80.722656 L 0 80.722656 Z M 0 0.597656 " clip-rule="nonzero"/></clipPath><clipPath id="e2a5d4ef75"><path d="M 17.699219 0.65625 L 79.960938 62.914062 L 62.28125 80.59375 L 0.0234375 18.335938 Z M 17.699219 0.65625 " clip-rule="nonzero"/></clipPath><clipPath id="0e5a8ef920"><rect x="0" width="80" y="0" height="81"/></clipPath><clipPath id="50bb562ef5"><path d="M 0.0390625 0 L 112.976562 0 L 112.976562 112.9375 L 0.0390625 112.9375 Z M 0.0390625 0 " clip-rule="nonzero"/></clipPath><clipPath id="310dac3d8b"><path d="M 56.507812 0 C 25.320312 0 0.0390625 25.28125 0.0390625 56.46875 C 0.0390625 87.65625 25.320312 112.9375 56.507812 112.9375 C 87.695312 112.9375 112.976562 87.65625 112.976562 56.46875 C 112.976562 25.28125 87.695312 0 56.507812 0 Z M 56.507812 0 " clip-rule="nonzero"/></clipPath><clipPath id="79d179c664"><path d="M 0.0390625 0 L 112.976562 0 L 112.976562 112.9375 L 0.0390625 112.9375 Z M 0.0390625 0 " clip-rule="nonzero"/></clipPath><clipPath id="a38d91d4a9"><path d="M 56.507812 0 C 25.320312 0 0.0390625 25.28125 0.0390625 56.46875 C 0.0390625 87.65625 25.320312 112.9375 56.507812 112.9375 C 87.695312 112.9375 112.976562 87.65625 112.976562 56.46875 C 112.976562 25.28125 87.695312 0 56.507812 0 Z M 56.507812 0 " clip-rule="nonzero"/></clipPath><clipPath id="22d13c1d11"><rect x="0" width="113" y="0" height="113"/></clipPath><clipPath id="2d2534c245"><path d="M 0.0390625 0 L 112.96875 0 L 112.96875 112.933594 L 0.0390625 112.933594 Z M 0.0390625 0 " clip-rule="nonzero"/></clipPath><clipPath id="1310e9cc44"><path d="M 56.503906 0 C 25.320312 0 0.0390625 25.28125 0.0390625 56.464844 C 0.0390625 87.652344 25.320312 112.933594 56.503906 112.933594 C 87.691406 112.933594 112.96875 87.652344 112.96875 56.464844 C 112.96875 25.28125 87.691406 0 56.503906 0 Z M 56.503906 0 " clip-rule="nonzero"/></clipPath></defs><g clip-path="url(#3413636785)"><path fill="#ffffff" d="M 0.0390625 0 L 179.960938 0 L 179.960938 179.921875 L 0.0390625 179.921875 Z M 0.0390625 0 " fill-opacity="1" fill-rule="nonzero"/><path fill="#ffffff" d="M 0.0390625 0 L 179.960938 0 L 179.960938 179.921875 L 0.0390625 179.921875 Z M 0.0390625 0 " fill-opacity="1" fill-rule="nonzero"/></g><g clip-path="url(#0253066ed8)"><g clip-path="url(#507704d87e)"><g transform="matrix(1, 0, 0, 1, 86, 85)"><g clip-path="url(#481a323d3b)"><g clip-path="url(#1a0439b7b3)"><g clip-path="url(#dc77b01a4f)"><path fill="#ffcd63" d="M 12.265625 0.144531 L 29.667969 17.546875 L 18.1875 29.027344 L 0.785156 11.625 Z M 12.265625 0.144531 " fill-opacity="1" fill-rule="nonzero"/></g></g></g></g></g></g><g clip-path="url(#07a8b7a851)"><g clip-path="url(#970af3a4ea)"><g transform="matrix(1, 0, 0, 1, 100, 98)"><g clip-path="url(#0e5a8ef920)"><g clip-path="url(#b1f49feadd)"><g clip-path="url(#e2a5d4ef75)"><path fill="#0a24e3" d="M 17.699219 0.65625 L 79.988281 62.945312 L 62.3125 80.621094 L 0.0234375 18.335938 Z M 17.699219 0.65625 " fill-opacity="1" fill-rule="nonzero"/></g></g></g></g></g></g><g clip-path="url(#50bb562ef5)"><g clip-path="url(#310dac3d8b)"><g transform="matrix(1, 0, 0, 1, 0.000000000000000007, 0)"><g clip-path="url(#22d13c1d11)"><g clip-path="url(#79d179c664)"><g clip-path="url(#a38d91d4a9)"><path fill="#ffcd63" d="M 0.0390625 0 L 112.976562 0 L 112.976562 112.9375 L 0.0390625 112.9375 Z M 0.0390625 0 " fill-opacity="1" fill-rule="nonzero"/></g></g></g></g></g></g><g clip-path="url(#2d2534c245)"><g clip-path="url(#1310e9cc44)"><path stroke-linecap="butt" transform="matrix(0.749681, 0, 0, 0.749681, 0.0382979, -0.000000000000042614)" fill="none" stroke-linejoin="miter" d="M 75.319532 0.000000000000056843 C 33.723705 0.000000000000056843 0.00101994 33.722685 0.00101994 75.318512 C 0.00101994 116.91955 33.723705 150.642234 75.319532 150.642234 C 116.920569 150.642234 150.638044 116.91955 150.638044 75.318512 C 150.638044 33.722685 116.920569 0.000000000000056843 75.319532 0.000000000000056843 Z M 75.319532 0.000000000000056843 " stroke="#0a24e3" stroke-width="26" stroke-opacity="1" stroke-miterlimit="4"/></g></g></svg>