<svg xmlns="http://www.w3.org/2000/svg" xmlns:xlink="http://www.w3.org/1999/xlink" width="1080" zoomAndPan="magnify" viewBox="0 0 810 809.999993" height="1080" preserveAspectRatio="xMidYMid meet" version="1.0"><path fill="#0a24e3" d="M 102.519531 265.949219 L 726.71875 265.949219 L 726.71875 706.875 L 102.519531 706.875 Z M 102.519531 265.949219 " fill-opacity="1" fill-rule="nonzero"/><path fill="#e3664f" d="M 102.519531 110.1875 L 726.71875 110.1875 L 726.71875 206.160156 L 102.519531 206.160156 Z M 102.519531 110.1875 " fill-opacity="1" fill-rule="nonzero"/><path fill="#e3664f" d="M 201.878906 110.1875 C 201.878906 86.601562 220.996094 67.5 244.566406 67.5 C 268.136719 67.5 287.253906 86.617188 287.253906 110.1875 L 201.867188 110.1875 Z M 201.878906 110.1875 " fill-opacity="1" fill-rule="nonzero"/><path fill="#e3664f" d="M 541.957031 110.1875 C 541.957031 86.601562 561.074219 67.5 584.644531 67.5 C 608.214844 67.5 627.332031 86.617188 627.332031 110.1875 L 541.945312 110.1875 Z M 541.957031 110.1875 " fill-opacity="1" fill-rule="nonzero"/><path fill="#f7f5f2" d="M 231.820312 327.363281 L 308.933594 327.363281 L 308.933594 404.472656 L 231.820312 404.472656 Z M 231.820312 327.363281 " fill-opacity="1" fill-rule="nonzero"/><path fill="#f7f5f2" d="M 376.054688 327.363281 L 453.167969 327.363281 L 453.167969 404.472656 L 376.054688 404.472656 Z M 376.054688 327.363281 " fill-opacity="1" fill-rule="nonzero"/><path fill="#f7f5f2" d="M 520.289062 327.363281 L 597.402344 327.363281 L 597.402344 404.472656 L 520.289062 404.472656 Z M 520.289062 327.363281 " fill-opacity="1" fill-rule="nonzero"/><path fill="#f7f5f2" d="M 231.820312 447.863281 L 308.933594 447.863281 L 308.933594 524.972656 L 231.820312 524.972656 Z M 231.820312 447.863281 " fill-opacity="1" fill-rule="nonzero"/><path fill="#f7f5f2" d="M 376.054688 447.863281 L 453.167969 447.863281 L 453.167969 524.972656 L 376.054688 524.972656 Z M 376.054688 447.863281 " fill-opacity="1" fill-rule="nonzero"/><path fill="#f7f5f2" d="M 520.289062 447.863281 L 597.402344 447.863281 L 597.402344 524.972656 L 520.289062 524.972656 Z M 520.289062 447.863281 " fill-opacity="1" fill-rule="nonzero"/><path fill="#f7f5f2" d="M 231.820312 567.59375 L 308.933594 567.59375 L 308.933594 644.707031 L 231.820312 644.707031 Z M 231.820312 567.59375 " fill-opacity="1" fill-rule="nonzero"/><path fill="#f7f5f2" d="M 376.054688 567.59375 L 453.167969 567.59375 L 453.167969 644.707031 L 376.054688 644.707031 Z M 376.054688 567.59375 " fill-opacity="1" fill-rule="nonzero"/><path fill="#f7f5f2" d="M 520.289062 567.59375 L 597.402344 567.59375 L 597.402344 644.707031 L 520.289062 644.707031 Z M 520.289062 567.59375 " fill-opacity="1" fill-rule="nonzero"/></svg>