<svg xmlns="http://www.w3.org/2000/svg" xmlns:xlink="http://www.w3.org/1999/xlink" width="1080" zoomAndPan="magnify" viewBox="0 0 810 809.999993" height="1080" preserveAspectRatio="xMidYMid meet" version="1.0"><defs><clipPath id="6fd7abae02"><path d="M 0 288.53125 L 132.367188 288.53125 L 132.367188 420.839844 L 0 420.839844 Z M 0 288.53125 " clip-rule="nonzero"/></clipPath><clipPath id="93f7aa54ad"><path d="M 66.175781 288.53125 C 29.636719 288.53125 0 318.15625 0 354.691406 C 0 391.214844 29.636719 420.839844 66.175781 420.839844 C 102.730469 420.839844 132.367188 391.214844 132.367188 354.691406 C 132.367188 318.15625 102.730469 288.53125 66.175781 288.53125 Z M 66.175781 288.53125 " clip-rule="nonzero"/></clipPath><clipPath id="5f030c6948"><path d="M 66.175781 288.53125 C 29.636719 288.53125 0 318.15625 0 354.691406 C 0 391.214844 29.636719 420.839844 66.175781 420.839844 C 102.730469 420.839844 132.367188 391.214844 132.367188 354.691406 C 132.367188 318.15625 102.730469 288.53125 66.175781 288.53125 Z M 66.175781 288.53125 " clip-rule="nonzero"/></clipPath><clipPath id="90b0c2bc28"><path d="M 399.128906 288.53125 L 531.496094 288.53125 L 531.496094 420.839844 L 399.128906 420.839844 Z M 399.128906 288.53125 " clip-rule="nonzero"/></clipPath><clipPath id="7fd5a99f36"><path d="M 465.320312 288.53125 C 428.765625 288.53125 399.128906 318.15625 399.128906 354.691406 C 399.128906 391.214844 428.765625 420.839844 465.320312 420.839844 C 501.871094 420.839844 531.496094 391.214844 531.496094 354.691406 C 531.496094 318.15625 501.871094 288.53125 465.320312 288.53125 Z M 465.320312 288.53125 " clip-rule="nonzero"/></clipPath><clipPath id="6930e998f0"><path d="M 465.320312 288.53125 C 428.765625 288.53125 399.128906 318.15625 399.128906 354.691406 C 399.128906 391.214844 428.765625 420.839844 465.320312 420.839844 C 501.871094 420.839844 531.496094 391.214844 531.496094 354.691406 C 531.496094 318.15625 501.871094 288.53125 465.320312 288.53125 Z M 465.320312 288.53125 " clip-rule="nonzero"/></clipPath><clipPath id="f1cea9f38a"><path d="M 101 426.246094 L 241 426.246094 L 241 698.269531 L 101 698.269531 Z M 101 426.246094 " clip-rule="nonzero"/></clipPath><clipPath id="9a2104902f"><path d="M 180.625 425.464844 L 241.75 679.394531 L 161.742188 698.640625 L 100.613281 444.710938 Z M 180.625 425.464844 " clip-rule="nonzero"/></clipPath><clipPath id="b9d29bfac6"><path d="M 180.984375 428.308594 L 240.824219 676.9375 C 240.984375 677.582031 240.878906 678.269531 240.535156 678.851562 C 240.179688 679.421875 239.621094 679.832031 238.960938 679.988281 L 164.1875 697.96875 C 163.527344 698.125 162.839844 698.019531 162.269531 697.664062 C 161.699219 697.320312 161.292969 696.75 161.132812 696.101562 L 101.277344 447.488281 C 101.117188 446.824219 101.222656 446.136719 101.582031 445.570312 C 101.925781 445 102.492188 444.59375 103.140625 444.433594 L 177.929688 426.441406 C 178.574219 426.285156 179.265625 426.390625 179.832031 426.746094 C 180.414062 427.105469 180.824219 427.660156 180.984375 428.308594 Z M 180.984375 428.308594 " clip-rule="nonzero"/></clipPath><clipPath id="e1b900978a"><path d="M 180.625 425.464844 L 241.75 679.394531 L 161.742188 698.640625 L 100.613281 444.710938 Z M 180.625 425.464844 " clip-rule="nonzero"/></clipPath><clipPath id="4266c9c9a2"><path d="M 180.984375 428.308594 L 240.824219 676.9375 C 240.984375 677.582031 240.878906 678.269531 240.535156 678.851562 C 240.179688 679.421875 239.621094 679.832031 238.960938 679.988281 L 164.1875 697.96875 C 163.527344 698.125 162.839844 698.019531 162.269531 697.664062 C 161.699219 697.320312 161.292969 696.75 161.132812 696.101562 L 101.277344 447.488281 C 101.117188 446.824219 101.222656 446.136719 101.582031 445.570312 C 101.925781 445 102.492188 444.59375 103.140625 444.433594 L 177.929688 426.441406 C 178.574219 426.285156 179.265625 426.390625 179.832031 426.746094 C 180.414062 427.105469 180.824219 427.660156 180.984375 428.308594 Z M 180.984375 428.308594 " clip-rule="nonzero"/></clipPath><clipPath id="cb7cb23b91"><path d="M 28.722656 215.488281 L 307.269531 215.488281 L 307.269531 493.898438 L 28.722656 493.898438 Z M 28.722656 215.488281 " clip-rule="nonzero"/></clipPath><clipPath id="25a7a10023"><path d="M 167.996094 215.488281 C 91.078125 215.488281 28.722656 277.800781 28.722656 354.691406 C 28.722656 431.570312 91.078125 493.898438 167.996094 493.898438 C 244.914062 493.898438 307.269531 431.570312 307.269531 354.691406 C 307.269531 277.800781 244.914062 215.488281 167.996094 215.488281 Z M 167.996094 215.488281 " clip-rule="nonzero"/></clipPath><clipPath id="c13af57066"><path d="M 167.996094 215.488281 C 91.078125 215.488281 28.722656 277.800781 28.722656 354.691406 C 28.722656 431.570312 91.078125 493.898438 167.996094 493.898438 C 244.914062 493.898438 307.269531 431.570312 307.269531 354.691406 C 307.269531 277.800781 244.914062 215.488281 167.996094 215.488281 Z M 167.996094 215.488281 " clip-rule="nonzero"/></clipPath><clipPath id="6d1b0ef380"><path d="M 556.886719 336.875 L 805.492188 336.875 L 805.492188 386.972656 L 556.886719 386.972656 Z M 556.886719 336.875 " clip-rule="nonzero"/></clipPath><clipPath id="1c5543cc6c"><path d="M 559.414062 336.875 L 802.925781 336.875 C 803.585938 336.875 804.234375 337.152344 804.710938 337.613281 C 805.1875 338.089844 805.449219 338.738281 805.449219 339.410156 L 805.449219 384.433594 C 805.449219 385.109375 805.1875 385.753906 804.710938 386.230469 C 804.234375 386.695312 803.585938 386.972656 802.925781 386.972656 L 559.414062 386.972656 C 558.738281 386.972656 558.105469 386.695312 557.628906 386.230469 C 557.152344 385.753906 556.886719 385.109375 556.886719 384.433594 L 556.886719 339.410156 C 556.886719 338.738281 557.152344 338.089844 557.628906 337.613281 C 558.105469 337.152344 558.738281 336.875 559.414062 336.875 Z M 559.414062 336.875 " clip-rule="nonzero"/></clipPath><clipPath id="143b27fdf5"><path d="M 559.414062 336.875 L 802.925781 336.875 C 803.585938 336.875 804.234375 337.152344 804.710938 337.613281 C 805.1875 338.089844 805.449219 338.738281 805.449219 339.410156 L 805.449219 384.433594 C 805.449219 385.109375 805.1875 385.753906 804.710938 386.230469 C 804.234375 386.695312 803.585938 386.972656 802.925781 386.972656 L 559.414062 386.972656 C 558.738281 386.972656 558.105469 386.695312 557.628906 386.230469 C 557.152344 385.753906 556.886719 385.109375 556.886719 384.433594 L 556.886719 339.410156 C 556.886719 338.738281 557.152344 338.089844 557.628906 337.613281 C 558.105469 337.152344 558.738281 336.875 559.414062 336.875 Z M 559.414062 336.875 " clip-rule="nonzero"/></clipPath><clipPath id="d3b55f38e0"><path d="M 532.171875 152 L 771.914062 152 L 771.914062 316.941406 L 532.171875 316.941406 Z M 532.171875 152 " clip-rule="nonzero"/></clipPath><clipPath id="46f8ad801a"><path d="M 531.535156 274.046875 L 747.816406 151.523438 L 772.519531 195.089844 L 556.253906 317.628906 Z M 531.535156 274.046875 " clip-rule="nonzero"/></clipPath><clipPath id="0d784de63b"><path d="M 533.746094 272.800781 L 745.582031 152.777344 C 746.164062 152.445312 746.851562 152.367188 747.5 152.539062 C 748.148438 152.722656 748.703125 153.148438 749.03125 153.730469 L 771.25 192.910156 C 771.582031 193.492188 771.660156 194.179688 771.488281 194.824219 C 771.304688 195.472656 770.878906 196.027344 770.285156 196.359375 L 558.449219 316.371094 C 557.867188 316.703125 557.179688 316.792969 556.53125 316.609375 C 555.882812 316.4375 555.328125 316 554.996094 315.417969 L 532.792969 276.253906 C 532.460938 275.671875 532.371094 274.96875 532.554688 274.324219 C 532.726562 273.675781 533.164062 273.132812 533.746094 272.800781 Z M 533.746094 272.800781 " clip-rule="nonzero"/></clipPath><clipPath id="27b453e1fb"><path d="M 531.535156 274.046875 L 747.816406 151.523438 L 772.519531 195.089844 L 556.253906 317.628906 Z M 531.535156 274.046875 " clip-rule="nonzero"/></clipPath><clipPath id="ce3c5dfaf0"><path d="M 533.746094 272.800781 L 745.582031 152.777344 C 746.164062 152.445312 746.851562 152.367188 747.5 152.539062 C 748.148438 152.722656 748.703125 153.148438 749.03125 153.730469 L 771.25 192.910156 C 771.582031 193.492188 771.660156 194.179688 771.488281 194.824219 C 771.304688 195.472656 770.878906 196.027344 770.285156 196.359375 L 558.449219 316.371094 C 557.867188 316.703125 557.179688 316.792969 556.53125 316.609375 C 555.882812 316.4375 555.328125 316 554.996094 315.417969 L 532.792969 276.253906 C 532.460938 275.671875 532.371094 274.96875 532.554688 274.324219 C 532.726562 273.675781 533.164062 273.132812 533.746094 272.800781 Z M 533.746094 272.800781 " clip-rule="nonzero"/></clipPath><clipPath id="a5abeaf93e"><path d="M 534 409 L 770 409 L 770 582.503906 L 534 582.503906 Z M 534 409 " clip-rule="nonzero"/></clipPath><clipPath id="3e7cdea607"><path d="M 560.3125 408.292969 L 770.550781 540.902344 L 743.808594 583.269531 L 533.574219 450.660156 Z M 560.3125 408.292969 " clip-rule="nonzero"/></clipPath><clipPath id="6878c08ed1"><path d="M 562.457031 409.640625 L 768.382812 539.542969 C 768.949219 539.898438 769.347656 540.46875 769.492188 541.113281 C 769.652344 541.777344 769.53125 542.460938 769.175781 543.03125 L 745.132812 581.101562 C 744.773438 581.667969 744.207031 582.078125 743.542969 582.222656 C 742.882812 582.371094 742.210938 582.25 741.640625 581.894531 L 535.703125 452.007812 C 535.144531 451.652344 534.738281 451.082031 534.589844 450.421875 C 534.445312 449.773438 534.566406 449.085938 534.921875 448.519531 L 558.964844 410.433594 C 559.320312 409.867188 559.890625 409.46875 560.539062 409.3125 C 561.199219 409.167969 561.886719 409.285156 562.457031 409.640625 Z M 562.457031 409.640625 " clip-rule="nonzero"/></clipPath><clipPath id="70e8e88654"><path d="M 560.3125 408.292969 L 770.550781 540.902344 L 743.808594 583.269531 L 533.574219 450.660156 Z M 560.3125 408.292969 " clip-rule="nonzero"/></clipPath><clipPath id="63915cecc8"><path d="M 562.457031 409.640625 L 768.382812 539.542969 C 768.949219 539.898438 769.347656 540.46875 769.492188 541.113281 C 769.652344 541.777344 769.53125 542.460938 769.175781 543.03125 L 745.132812 581.101562 C 744.773438 581.667969 744.207031 582.078125 743.542969 582.222656 C 742.882812 582.371094 742.210938 582.25 741.640625 581.894531 L 535.703125 452.007812 C 535.144531 451.652344 534.738281 451.082031 534.589844 450.421875 C 534.445312 449.773438 534.566406 449.085938 534.921875 448.519531 L 558.964844 410.433594 C 559.320312 409.867188 559.890625 409.46875 560.539062 409.3125 C 561.199219 409.167969 561.886719 409.285156 562.457031 409.640625 Z M 562.457031 409.640625 " clip-rule="nonzero"/></clipPath><clipPath id="8c90968c83"><path d="M 145.910156 109.683594 L 468.636719 109.683594 L 468.636719 598.484375 L 145.910156 598.484375 Z M 145.910156 109.683594 " clip-rule="nonzero"/></clipPath><clipPath id="11012f47c7"><path d="M 145.910156 491.226562 L 145.910156 216.914062 L 468.636719 109.65625 L 468.636719 598.484375 Z M 145.910156 491.226562 " clip-rule="nonzero"/></clipPath><clipPath id="759ec31e51"><path d="M 145.910156 491.226562 L 145.910156 216.914062 L 468.636719 109.65625 L 468.636719 598.484375 Z M 145.910156 491.226562 " clip-rule="nonzero"/></clipPath></defs><g clip-path="url(#6fd7abae02)"><g clip-path="url(#93f7aa54ad)"><g clip-path="url(#5f030c6948)"><path fill="#0a24e3" d="M 0 288.53125 L 132.367188 288.53125 L 132.367188 420.839844 L 0 420.839844 Z M 0 288.53125 " fill-opacity="1" fill-rule="nonzero"/></g></g></g><g clip-path="url(#90b0c2bc28)"><g clip-path="url(#7fd5a99f36)"><g clip-path="url(#6930e998f0)"><path fill="#e3664f" d="M 399.128906 288.53125 L 531.496094 288.53125 L 531.496094 420.839844 L 399.128906 420.839844 Z M 399.128906 288.53125 " fill-opacity="1" fill-rule="nonzero"/></g></g></g><g clip-path="url(#f1cea9f38a)"><g clip-path="url(#9a2104902f)"><g clip-path="url(#b9d29bfac6)"><g clip-path="url(#e1b900978a)"><g clip-path="url(#4266c9c9a2)"><path fill="#ffcd63" d="M 180.386719 425.847656 L 241.449219 679.472656 L 161.742188 698.640625 L 100.679688 445.027344 Z M 180.386719 425.847656 " fill-opacity="1" fill-rule="nonzero"/></g></g></g></g></g><g clip-path="url(#cb7cb23b91)"><g clip-path="url(#25a7a10023)"><g clip-path="url(#c13af57066)"><path fill="#6dccf2" d="M 28.722656 215.488281 L 307.269531 215.488281 L 307.269531 493.898438 L 28.722656 493.898438 Z M 28.722656 215.488281 " fill-opacity="1" fill-rule="nonzero"/></g></g></g><g clip-path="url(#6d1b0ef380)"><g clip-path="url(#1c5543cc6c)"><g clip-path="url(#143b27fdf5)"><path fill="#ffcd63" d="M 556.886719 336.875 L 805.492188 336.875 L 805.492188 386.972656 L 556.886719 386.972656 Z M 556.886719 336.875 " fill-opacity="1" fill-rule="nonzero"/></g></g></g><g clip-path="url(#d3b55f38e0)"><g clip-path="url(#46f8ad801a)"><g clip-path="url(#0d784de63b)"><g clip-path="url(#27b453e1fb)"><g clip-path="url(#ce3c5dfaf0)"><path fill="#ffcd63" d="M 531.535156 274.046875 L 747.816406 151.523438 L 772.519531 195.089844 L 556.253906 317.628906 Z M 531.535156 274.046875 " fill-opacity="1" fill-rule="nonzero"/></g></g></g></g></g><g clip-path="url(#a5abeaf93e)"><g clip-path="url(#3e7cdea607)"><g clip-path="url(#6878c08ed1)"><g clip-path="url(#70e8e88654)"><g clip-path="url(#63915cecc8)"><path fill="#ffcd63" d="M 560.3125 408.292969 L 770.550781 540.902344 L 743.808594 583.269531 L 533.574219 450.660156 Z M 560.3125 408.292969 " fill-opacity="1" fill-rule="nonzero"/></g></g></g></g></g><g clip-path="url(#8c90968c83)"><g clip-path="url(#11012f47c7)"><g clip-path="url(#759ec31e51)"><path fill="#0a24e3" d="M 145.910156 109.578125 L 468.636719 109.578125 L 468.636719 598.484375 L 145.910156 598.484375 Z M 145.910156 109.578125 " fill-opacity="1" fill-rule="nonzero"/></g></g></g></svg>