<svg xmlns="http://www.w3.org/2000/svg" xmlns:xlink="http://www.w3.org/1999/xlink" width="1080" zoomAndPan="magnify" viewBox="0 0 810 809.999993" height="1080" preserveAspectRatio="xMidYMid meet" version="1.0"><path fill="#173340" d="M 0 141.210938 L 809.472656 141.210938 L 809.472656 665.875 L 0 665.875 Z M 0 141.210938 " fill-opacity="1" fill-rule="nonzero"/><path fill="#e3664f" d="M 539.648438 403.542969 C 539.648438 405.628906 539.597656 407.710938 539.496094 409.792969 C 539.394531 411.875 539.238281 413.957031 539.035156 416.03125 C 538.832031 418.105469 538.574219 420.175781 538.269531 422.238281 C 537.964844 424.300781 537.609375 426.355469 537.199219 428.398438 C 536.792969 430.445312 536.335938 432.476562 535.832031 434.5 C 535.324219 436.523438 534.769531 438.53125 534.164062 440.527344 C 533.558594 442.523438 532.902344 444.503906 532.199219 446.464844 C 531.5 448.429688 530.75 450.375 529.949219 452.300781 C 529.152344 454.226562 528.308594 456.132812 527.414062 458.019531 C 526.523438 459.902344 525.585938 461.765625 524.605469 463.605469 C 523.621094 465.441406 522.59375 467.257812 521.523438 469.046875 C 520.449219 470.832031 519.335938 472.59375 518.175781 474.328125 C 517.015625 476.0625 515.816406 477.765625 514.574219 479.441406 C 513.332031 481.117188 512.050781 482.761719 510.726562 484.371094 C 509.40625 485.984375 508.042969 487.5625 506.644531 489.105469 C 505.242188 490.652344 503.804688 492.160156 502.332031 493.636719 C 500.855469 495.109375 499.347656 496.546875 497.800781 497.949219 C 496.257812 499.347656 494.679688 500.710938 493.066406 502.035156 C 491.453125 503.355469 489.8125 504.640625 488.136719 505.882812 C 486.460938 507.125 484.757812 508.324219 483.023438 509.480469 C 481.289062 510.640625 479.527344 511.753906 477.738281 512.828125 C 475.949219 513.898438 474.136719 514.925781 472.296875 515.910156 C 470.460938 516.894531 468.597656 517.832031 466.710938 518.722656 C 464.828125 519.613281 462.921875 520.457031 460.996094 521.257812 C 459.066406 522.054688 457.125 522.804688 455.160156 523.507812 C 453.195312 524.210938 451.21875 524.863281 449.222656 525.46875 C 447.226562 526.074219 445.21875 526.628906 443.195312 527.136719 C 441.171875 527.644531 439.136719 528.101562 437.09375 528.507812 C 435.046875 528.914062 432.992188 529.269531 430.929688 529.574219 C 428.867188 529.882812 426.800781 530.136719 424.722656 530.339844 C 422.648438 530.546875 420.570312 530.699219 418.488281 530.800781 C 416.40625 530.902344 414.320312 530.953125 412.234375 530.953125 C 410.152344 530.953125 408.066406 530.902344 405.984375 530.800781 C 403.902344 530.699219 401.824219 530.546875 399.746094 530.339844 C 397.671875 530.136719 395.601562 529.882812 393.539062 529.574219 C 391.476562 529.269531 389.425781 528.914062 387.378906 528.507812 C 385.332031 528.101562 383.300781 527.644531 381.277344 527.136719 C 379.253906 526.628906 377.246094 526.074219 375.25 525.46875 C 373.253906 524.863281 371.273438 524.210938 369.3125 523.507812 C 367.347656 522.804688 365.402344 522.054688 363.476562 521.257812 C 361.550781 520.457031 359.644531 519.613281 357.761719 518.722656 C 355.875 517.832031 354.011719 516.894531 352.171875 515.910156 C 350.335938 514.925781 348.519531 513.898438 346.734375 512.828125 C 344.945312 511.753906 343.183594 510.640625 341.449219 509.480469 C 339.714844 508.324219 338.011719 507.125 336.335938 505.882812 C 334.660156 504.640625 333.019531 503.355469 331.40625 502.035156 C 329.792969 500.710938 328.214844 499.347656 326.671875 497.949219 C 325.125 496.546875 323.617188 495.109375 322.140625 493.636719 C 320.667969 492.160156 319.230469 490.652344 317.828125 489.105469 C 316.429688 487.5625 315.066406 485.984375 313.746094 484.371094 C 312.421875 482.761719 311.140625 481.117188 309.898438 479.441406 C 308.65625 477.765625 307.453125 476.0625 306.296875 474.328125 C 305.136719 472.59375 304.023438 470.832031 302.949219 469.046875 C 301.878906 467.257812 300.851562 465.441406 299.867188 463.605469 C 298.882812 461.765625 297.949219 459.902344 297.054688 458.019531 C 296.164062 456.132812 295.320312 454.226562 294.523438 452.300781 C 293.722656 450.375 292.972656 448.429688 292.269531 446.464844 C 291.570312 444.503906 290.914062 442.523438 290.308594 440.527344 C 289.703125 438.53125 289.148438 436.523438 288.640625 434.5 C 288.132812 432.476562 287.679688 430.445312 287.269531 428.398438 C 286.863281 426.355469 286.507812 424.300781 286.203125 422.238281 C 285.894531 420.175781 285.640625 418.105469 285.4375 416.03125 C 285.230469 413.957031 285.078125 411.875 284.976562 409.792969 C 284.875 407.710938 284.824219 405.628906 284.824219 403.542969 C 284.824219 401.457031 284.875 399.371094 284.976562 397.289062 C 285.078125 395.207031 285.230469 393.128906 285.4375 391.054688 C 285.640625 388.976562 285.894531 386.910156 286.203125 384.847656 C 286.507812 382.785156 286.863281 380.730469 287.269531 378.683594 C 287.679688 376.640625 288.132812 374.605469 288.640625 372.582031 C 289.148438 370.558594 289.703125 368.550781 290.308594 366.554688 C 290.914062 364.558594 291.570312 362.582031 292.269531 360.617188 C 292.972656 358.65625 293.722656 356.710938 294.523438 354.78125 C 295.320312 352.855469 296.164062 350.949219 297.054688 349.066406 C 297.949219 347.179688 298.882812 345.320312 299.867188 343.480469 C 300.851562 341.640625 301.878906 339.828125 302.949219 338.039062 C 304.023438 336.25 305.136719 334.488281 306.296875 332.753906 C 307.453125 331.019531 308.65625 329.316406 309.898438 327.640625 C 311.140625 325.96875 312.421875 324.324219 313.746094 322.710938 C 315.066406 321.101562 316.429688 319.523438 317.828125 317.976562 C 319.230469 316.429688 320.667969 314.921875 322.140625 313.449219 C 323.617188 311.972656 325.125 310.535156 326.671875 309.136719 C 328.214844 307.734375 329.792969 306.375 331.40625 305.050781 C 333.019531 303.726562 334.660156 302.445312 336.335938 301.203125 C 338.011719 299.960938 339.714844 298.761719 341.449219 297.601562 C 343.183594 296.445312 344.945312 295.328125 346.734375 294.257812 C 348.519531 293.183594 350.335938 292.15625 352.171875 291.171875 C 354.011719 290.191406 355.875 289.253906 357.761719 288.363281 C 359.644531 287.46875 361.550781 286.625 363.476562 285.828125 C 365.402344 285.03125 367.347656 284.28125 369.3125 283.578125 C 371.273438 282.875 373.253906 282.21875 375.25 281.617188 C 377.246094 281.011719 379.253906 280.453125 381.277344 279.949219 C 383.300781 279.441406 385.332031 278.984375 387.378906 278.578125 C 389.425781 278.171875 391.476562 277.8125 393.539062 277.507812 C 395.601562 277.203125 397.671875 276.945312 399.746094 276.742188 C 401.824219 276.539062 403.902344 276.386719 405.984375 276.28125 C 408.066406 276.179688 410.152344 276.128906 412.234375 276.128906 C 414.320312 276.128906 416.40625 276.179688 418.488281 276.28125 C 420.570312 276.386719 422.648438 276.539062 424.722656 276.742188 C 426.800781 276.945312 428.867188 277.203125 430.929688 277.507812 C 432.992188 277.8125 435.046875 278.171875 437.09375 278.578125 C 439.136719 278.984375 441.171875 279.441406 443.195312 279.949219 C 445.21875 280.453125 447.226562 281.011719 449.222656 281.617188 C 451.21875 282.21875 453.195312 282.875 455.160156 283.578125 C 457.125 284.28125 459.066406 285.03125 460.996094 285.828125 C 462.921875 286.625 464.828125 287.46875 466.710938 288.363281 C 468.597656 289.253906 470.460938 290.191406 472.296875 291.171875 C 474.136719 292.15625 475.949219 293.183594 477.738281 294.257812 C 479.527344 295.328125 481.289062 296.445312 483.023438 297.601562 C 484.757812 298.761719 486.460938 299.960938 488.136719 301.203125 C 489.8125 302.445312 491.453125 303.726562 493.066406 305.050781 C 494.679688 306.375 496.257812 307.734375 497.800781 309.136719 C 499.347656 310.535156 500.855469 311.972656 502.332031 313.449219 C 503.804688 314.921875 505.242188 316.429688 506.644531 317.976562 C 508.042969 319.523438 509.40625 321.101562 510.726562 322.710938 C 512.050781 324.324219 513.332031 325.96875 514.574219 327.640625 C 515.816406 329.316406 517.015625 331.019531 518.175781 332.753906 C 519.335938 334.488281 520.449219 336.25 521.523438 338.039062 C 522.59375 339.828125 523.621094 341.640625 524.605469 343.480469 C 525.585938 345.320312 526.523438 347.179688 527.414062 349.066406 C 528.308594 350.949219 529.152344 352.855469 529.949219 354.78125 C 530.75 356.710938 531.5 358.65625 532.199219 360.617188 C 532.902344 362.582031 533.558594 364.558594 534.164062 366.554688 C 534.769531 368.550781 535.324219 370.558594 535.832031 372.582031 C 536.335938 374.605469 536.792969 376.640625 537.199219 378.683594 C 537.609375 380.730469 537.964844 382.785156 538.269531 384.847656 C 538.574219 386.910156 538.832031 388.976562 539.035156 391.054688 C 539.238281 393.128906 539.394531 395.207031 539.496094 397.289062 C 539.597656 399.371094 539.648438 401.457031 539.648438 403.542969 Z M 539.648438 403.542969 " fill-opacity="1" fill-rule="nonzero"/><path fill="#e3664f" d="M 676.835938 141.210938 C 676.835938 214.460938 736.222656 273.847656 809.472656 273.847656 L 809.472656 141.210938 Z M 676.835938 141.210938 " fill-opacity="1" fill-rule="nonzero"/><path fill="#e3664f" d="M 809.472656 533.222656 C 736.222656 533.222656 676.835938 592.609375 676.835938 665.859375 L 809.472656 665.859375 Z M 809.472656 533.222656 " fill-opacity="1" fill-rule="nonzero"/><path fill="#e3664f" d="M 132.636719 665.875 C 132.636719 592.621094 73.25 533.238281 0 533.238281 L 0 665.875 Z M 132.636719 665.875 " fill-opacity="1" fill-rule="nonzero"/><path fill="#e3664f" d="M 0 273.847656 C 73.25 273.847656 132.636719 214.460938 132.636719 141.210938 L 0 141.210938 Z M 0 273.847656 " fill-opacity="1" fill-rule="nonzero"/></svg>