<svg xmlns="http://www.w3.org/2000/svg" xmlns:xlink="http://www.w3.org/1999/xlink" width="1080" zoomAndPan="magnify" viewBox="0 0 810 809.999993" height="1080" preserveAspectRatio="xMidYMid meet" version="1.0"><defs><clipPath id="9b68b9a97e"><path d="M 42.679688 42.679688 L 767.320312 42.679688 L 767.320312 767.320312 L 42.679688 767.320312 Z M 42.679688 42.679688 " clip-rule="nonzero"/></clipPath><clipPath id="11b51ade1d"><path d="M 405 42.679688 C 204.894531 42.679688 42.679688 204.894531 42.679688 405 C 42.679688 605.105469 204.894531 767.320312 405 767.320312 C 605.105469 767.320312 767.320312 605.105469 767.320312 405 C 767.320312 204.894531 605.105469 42.679688 405 42.679688 Z M 405 42.679688 " clip-rule="nonzero"/></clipPath><clipPath id="933060d1d1"><path d="M 0.679688 0.679688 L 725.320312 0.679688 L 725.320312 725.320312 L 0.679688 725.320312 Z M 0.679688 0.679688 " clip-rule="nonzero"/></clipPath><clipPath id="b629124b5f"><path d="M 363 0.679688 C 162.894531 0.679688 0.679688 162.894531 0.679688 363 C 0.679688 563.105469 162.894531 725.320312 363 725.320312 C 563.105469 725.320312 725.320312 563.105469 725.320312 363 C 725.320312 162.894531 563.105469 0.679688 363 0.679688 Z M 363 0.679688 " clip-rule="nonzero"/></clipPath><clipPath id="83d4371e46"><rect x="0" width="726" y="0" height="726"/></clipPath></defs><g clip-path="url(#9b68b9a97e)"><g clip-path="url(#11b51ade1d)"><g transform="matrix(1, 0, 0, 1, 42, 42)"><g clip-path="url(#83d4371e46)"><g clip-path="url(#933060d1d1)"><g clip-path="url(#b629124b5f)"><path fill="#e3664f" d="M 0.679688 0.679688 L 725.320312 0.679688 L 725.320312 725.320312 L 0.679688 725.320312 Z M 0.679688 0.679688 " fill-opacity="1" fill-rule="nonzero"/></g></g></g></g></g></g><path fill="#173340" d="M 404.796875 0 C 181.035156 0 0 181.238281 0 405 C 0 628.761719 181.035156 810 404.796875 810 C 628.558594 810 810 628.761719 810 405 C 810 181.238281 628.558594 0 404.796875 0 Z M 405 729 C 225.988281 729 81 584.011719 81 405 C 81 225.988281 225.988281 81 405 81 C 584.011719 81 729 225.988281 729 405 C 729 584.011719 584.011719 729 405 729 Z M 405 729 " fill-opacity="1" fill-rule="nonzero"/><path fill="#173340" d="M 425.25 202.5 L 364.5 202.5 L 364.5 445.5 L 576.921875 573.074219 L 607.5 523.261719 L 425.25 415.125 Z M 425.25 202.5 " fill-opacity="1" fill-rule="nonzero"/></svg>