<svg xmlns="http://www.w3.org/2000/svg" xmlns:xlink="http://www.w3.org/1999/xlink" width="200" zoomAndPan="magnify" viewBox="0 0 150 809.999993" height="1080" preserveAspectRatio="xMidYMid meet" version="1.0"><defs><clipPath id="631c4eb513"><path d="M 0.4375 0 L 35.5625 0 L 35.5625 35.125 L 0.4375 35.125 Z M 0.4375 0 " clip-rule="nonzero"/></clipPath><clipPath id="e86fadb041"><path d="M 18 0 C 8.300781 0 0.4375 7.863281 0.4375 17.5625 C 0.4375 27.261719 8.300781 35.125 18 35.125 C 27.699219 35.125 35.5625 27.261719 35.5625 17.5625 C 35.5625 7.863281 27.699219 0 18 0 Z M 18 0 " clip-rule="nonzero"/></clipPath><clipPath id="627858000f"><path d="M 0.4375 0 L 35.5625 0 L 35.5625 35.125 L 0.4375 35.125 Z M 0.4375 0 " clip-rule="nonzero"/></clipPath><clipPath id="411d33df46"><path d="M 18 0 C 8.300781 0 0.4375 7.863281 0.4375 17.5625 C 0.4375 27.261719 8.300781 35.125 18 35.125 C 27.699219 35.125 35.5625 27.261719 35.5625 17.5625 C 35.5625 7.863281 27.699219 0 18 0 Z M 18 0 " clip-rule="nonzero"/></clipPath><clipPath id="4d255d1d2b"><rect x="0" width="36" y="0" height="36"/></clipPath><clipPath id="341951c538"><path d="M 0.4375 203.25 L 35.5625 203.25 L 35.5625 238.375 L 0.4375 238.375 Z M 0.4375 203.25 " clip-rule="nonzero"/></clipPath><clipPath id="c756907199"><path d="M 18 203.25 C 8.300781 203.25 0.4375 211.113281 0.4375 220.8125 C 0.4375 230.511719 8.300781 238.375 18 238.375 C 27.699219 238.375 35.5625 230.511719 35.5625 220.8125 C 35.5625 211.113281 27.699219 203.25 18 203.25 Z M 18 203.25 " clip-rule="nonzero"/></clipPath><clipPath id="c2352a1be5"><path d="M 0.4375 0.25 L 35.5625 0.25 L 35.5625 35.375 L 0.4375 35.375 Z M 0.4375 0.25 " clip-rule="nonzero"/></clipPath><clipPath id="fe504771d0"><path d="M 18 0.25 C 8.300781 0.25 0.4375 8.113281 0.4375 17.8125 C 0.4375 27.511719 8.300781 35.375 18 35.375 C 27.699219 35.375 35.5625 27.511719 35.5625 17.8125 C 35.5625 8.113281 27.699219 0.25 18 0.25 Z M 18 0.25 " clip-rule="nonzero"/></clipPath><clipPath id="4a0bbd3fc2"><rect x="0" width="36" y="0" height="36"/></clipPath><clipPath id="e1eb01cc0d"><path d="M 0.4375 397.230469 L 35.5625 397.230469 L 35.5625 432.351562 L 0.4375 432.351562 Z M 0.4375 397.230469 " clip-rule="nonzero"/></clipPath><clipPath id="3685f1d4ef"><path d="M 18 397.230469 C 8.300781 397.230469 0.4375 405.09375 0.4375 414.792969 C 0.4375 424.492188 8.300781 432.351562 18 432.351562 C 27.699219 432.351562 35.5625 424.492188 35.5625 414.792969 C 35.5625 405.09375 27.699219 397.230469 18 397.230469 Z M 18 397.230469 " clip-rule="nonzero"/></clipPath><clipPath id="a0835d5bc4"><path d="M 0.4375 0.230469 L 35.5625 0.230469 L 35.5625 35.351562 L 0.4375 35.351562 Z M 0.4375 0.230469 " clip-rule="nonzero"/></clipPath><clipPath id="a71d756624"><path d="M 18 0.230469 C 8.300781 0.230469 0.4375 8.09375 0.4375 17.792969 C 0.4375 27.492188 8.300781 35.351562 18 35.351562 C 27.699219 35.351562 35.5625 27.492188 35.5625 17.792969 C 35.5625 8.09375 27.699219 0.230469 18 0.230469 Z M 18 0.230469 " clip-rule="nonzero"/></clipPath><clipPath id="816cffa67b"><rect x="0" width="36" y="0" height="36"/></clipPath><clipPath id="0fb60e05d2"><path d="M 0.4375 774.875 L 35.5625 774.875 L 35.5625 810 L 0.4375 810 Z M 0.4375 774.875 " clip-rule="nonzero"/></clipPath><clipPath id="5c40e7479a"><path d="M 18 774.875 C 8.300781 774.875 0.4375 782.738281 0.4375 792.4375 C 0.4375 802.136719 8.300781 810 18 810 C 27.699219 810 35.5625 802.136719 35.5625 792.4375 C 35.5625 782.738281 27.699219 774.875 18 774.875 Z M 18 774.875 " clip-rule="nonzero"/></clipPath><clipPath id="3fbb86b7dc"><path d="M 0.4375 0.875 L 35.5625 0.875 L 35.5625 36 L 0.4375 36 Z M 0.4375 0.875 " clip-rule="nonzero"/></clipPath><clipPath id="70bd3c357a"><path d="M 18 0.875 C 8.300781 0.875 0.4375 8.738281 0.4375 18.4375 C 0.4375 28.136719 8.300781 36 18 36 C 27.699219 36 35.5625 28.136719 35.5625 18.4375 C 35.5625 8.738281 27.699219 0.875 18 0.875 Z M 18 0.875 " clip-rule="nonzero"/></clipPath><clipPath id="0a7db0a41d"><rect x="0" width="36" y="0" height="36"/></clipPath><clipPath id="9f5d100a14"><path d="M 0.4375 586.050781 L 35.5625 586.050781 L 35.5625 621.175781 L 0.4375 621.175781 Z M 0.4375 586.050781 " clip-rule="nonzero"/></clipPath><clipPath id="14e2845ae4"><path d="M 18 586.050781 C 8.300781 586.050781 0.4375 593.914062 0.4375 603.613281 C 0.4375 613.3125 8.300781 621.175781 18 621.175781 C 27.699219 621.175781 35.5625 613.3125 35.5625 603.613281 C 35.5625 593.914062 27.699219 586.050781 18 586.050781 Z M 18 586.050781 " clip-rule="nonzero"/></clipPath><clipPath id="d66e07f38b"><path d="M 0.4375 0.0507812 L 35.5625 0.0507812 L 35.5625 35.175781 L 0.4375 35.175781 Z M 0.4375 0.0507812 " clip-rule="nonzero"/></clipPath><clipPath id="fff52d477e"><path d="M 18 0.0507812 C 8.300781 0.0507812 0.4375 7.914062 0.4375 17.613281 C 0.4375 27.3125 8.300781 35.175781 18 35.175781 C 27.699219 35.175781 35.5625 27.3125 35.5625 17.613281 C 35.5625 7.914062 27.699219 0.0507812 18 0.0507812 Z M 18 0.0507812 " clip-rule="nonzero"/></clipPath><clipPath id="54fe3299bc"><rect x="0" width="36" y="0" height="36"/></clipPath><clipPath id="9861054010"><rect x="0" width="36" y="0" height="810"/></clipPath></defs><g transform="matrix(1, 0, 0, 1, 57, 0.000000000000039746)"><g clip-path="url(#9861054010)"><path stroke-linecap="butt" transform="matrix(0, 1.638152, -1.638152, 0, 21.263903, 17.635154)" fill="none" stroke-linejoin="miter" d="M 0.000955148 1.999583 L 472.358083 1.999583 " stroke="#e3664f" stroke-width="4" stroke-opacity="1" stroke-miterlimit="4"/><g clip-path="url(#631c4eb513)"><g clip-path="url(#e86fadb041)"><g transform="matrix(1, 0, 0, 1, 0, 0.000000000000039746)"><g clip-path="url(#4d255d1d2b)"><g clip-path="url(#627858000f)"><g clip-path="url(#411d33df46)"><path fill="#e3664f" d="M 0.4375 0 L 35.5625 0 L 35.5625 35.125 L 0.4375 35.125 Z M 0.4375 0 " fill-opacity="1" fill-rule="nonzero"/></g></g></g></g></g></g><g clip-path="url(#341951c538)"><g clip-path="url(#c756907199)"><g transform="matrix(1, 0, 0, 1, 0, 203)"><g clip-path="url(#4a0bbd3fc2)"><g clip-path="url(#c2352a1be5)"><g clip-path="url(#fe504771d0)"><path fill="#e3664f" d="M 0.4375 0.25 L 35.5625 0.25 L 35.5625 35.375 L 0.4375 35.375 Z M 0.4375 0.25 " fill-opacity="1" fill-rule="nonzero"/></g></g></g></g></g></g><g clip-path="url(#e1eb01cc0d)"><g clip-path="url(#3685f1d4ef)"><g transform="matrix(1, 0, 0, 1, 0, 397)"><g clip-path="url(#816cffa67b)"><g clip-path="url(#a0835d5bc4)"><g clip-path="url(#a71d756624)"><path fill="#e3664f" d="M 0.4375 0.230469 L 35.5625 0.230469 L 35.5625 35.351562 L 0.4375 35.351562 Z M 0.4375 0.230469 " fill-opacity="1" fill-rule="nonzero"/></g></g></g></g></g></g><g clip-path="url(#0fb60e05d2)"><g clip-path="url(#5c40e7479a)"><g transform="matrix(1, 0, 0, 1, 0, 774)"><g clip-path="url(#0a7db0a41d)"><g clip-path="url(#3fbb86b7dc)"><g clip-path="url(#70bd3c357a)"><path fill="#e3664f" d="M 0.4375 0.875 L 35.5625 0.875 L 35.5625 36 L 0.4375 36 Z M 0.4375 0.875 " fill-opacity="1" fill-rule="nonzero"/></g></g></g></g></g></g><g clip-path="url(#9f5d100a14)"><g clip-path="url(#14e2845ae4)"><g transform="matrix(1, 0, 0, 1, 0, 586)"><g clip-path="url(#54fe3299bc)"><g clip-path="url(#d66e07f38b)"><g clip-path="url(#fff52d477e)"><path fill="#e3664f" d="M 0.4375 0.0507812 L 35.5625 0.0507812 L 35.5625 35.175781 L 0.4375 35.175781 Z M 0.4375 0.0507812 " fill-opacity="1" fill-rule="nonzero"/></g></g></g></g></g></g></g></g></svg>