<svg xmlns="http://www.w3.org/2000/svg" xmlns:xlink="http://www.w3.org/1999/xlink" width="240" zoomAndPan="magnify" viewBox="0 0 180 187.92" height="240" preserveAspectRatio="xMidYMid meet" version="1.0"><defs><clipPath id="f1e2c040d8"><path d="M 0.0390625 0 L 179.960938 0 L 179.960938 179.921875 L 0.0390625 179.921875 Z M 0.0390625 0 " clip-rule="nonzero"/></clipPath><clipPath id="4f2e4e48f0"><path d="M 9.519531 9.480469 L 170.480469 9.480469 L 170.480469 170.445312 L 9.519531 170.445312 Z M 9.519531 9.480469 " clip-rule="nonzero"/></clipPath><clipPath id="0b00f5dd3a"><path d="M 90 9.480469 C 45.550781 9.480469 9.519531 45.511719 9.519531 89.960938 C 9.519531 134.410156 45.550781 170.445312 90 170.445312 C 134.449219 170.445312 170.480469 134.410156 170.480469 89.960938 C 170.480469 45.511719 134.449219 9.480469 90 9.480469 Z M 90 9.480469 " clip-rule="nonzero"/></clipPath><clipPath id="a02c456eb1"><path d="M 0.519531 0.480469 L 161.480469 0.480469 L 161.480469 161.445312 L 0.519531 161.445312 Z M 0.519531 0.480469 " clip-rule="nonzero"/></clipPath><clipPath id="a905ce7af4"><path d="M 81 0.480469 C 36.550781 0.480469 0.519531 36.511719 0.519531 80.960938 C 0.519531 125.410156 36.550781 161.445312 81 161.445312 C 125.449219 161.445312 161.480469 125.410156 161.480469 80.960938 C 161.480469 36.511719 125.449219 0.480469 81 0.480469 Z M 81 0.480469 " clip-rule="nonzero"/></clipPath><clipPath id="1f157c08ea"><rect x="0" width="162" y="0" height="162"/></clipPath><clipPath id="275e27eef0"><path d="M 0.0390625 0 L 179.960938 0 L 179.960938 179.921875 L 0.0390625 179.921875 Z M 0.0390625 0 " clip-rule="nonzero"/></clipPath></defs><g clip-path="url(#f1e2c040d8)"><path fill="#ffffff" d="M 0.0390625 0 L 179.960938 0 L 179.960938 179.921875 L 0.0390625 179.921875 Z M 0.0390625 0 " fill-opacity="1" fill-rule="nonzero"/><path fill="#ffffff" d="M 0.0390625 0 L 179.960938 0 L 179.960938 179.921875 L 0.0390625 179.921875 Z M 0.0390625 0 " fill-opacity="1" fill-rule="nonzero"/></g><g clip-path="url(#4f2e4e48f0)"><g clip-path="url(#0b00f5dd3a)"><g transform="matrix(1, 0, 0, 1, 9, 9)"><g clip-path="url(#1f157c08ea)"><g clip-path="url(#a02c456eb1)"><g clip-path="url(#a905ce7af4)"><path fill="#ffcd63" d="M 0.519531 0.480469 L 161.480469 0.480469 L 161.480469 161.445312 L 0.519531 161.445312 Z M 0.519531 0.480469 " fill-opacity="1" fill-rule="nonzero"/></g></g></g></g></g></g><g clip-path="url(#275e27eef0)"><path fill="#0a24e3" d="M 89.953125 0 C 40.25 0 0.0390625 40.257812 0.0390625 89.960938 C 0.0390625 139.664062 40.25 179.921875 89.953125 179.921875 C 139.660156 179.921875 179.960938 139.664062 179.960938 89.960938 C 179.960938 40.257812 139.660156 0 89.953125 0 Z M 90 161.929688 C 50.238281 161.929688 18.03125 129.726562 18.03125 89.960938 C 18.03125 50.199219 50.238281 17.992188 90 17.992188 C 129.761719 17.992188 161.96875 50.199219 161.96875 89.960938 C 161.96875 129.726562 129.761719 161.929688 90 161.929688 Z M 90 161.929688 " fill-opacity="1" fill-rule="nonzero"/></g><path fill="#0a24e3" d="M 94.5 44.980469 L 81.003906 44.980469 L 81.003906 98.957031 L 128.1875 127.296875 L 134.980469 116.230469 L 94.5 92.210938 Z M 94.5 44.980469 " fill-opacity="1" fill-rule="nonzero"/></svg>