<svg xmlns="http://www.w3.org/2000/svg" xmlns:xlink="http://www.w3.org/1999/xlink" width="1080" zoomAndPan="magnify" viewBox="0 0 810 809.999993" height="1080" preserveAspectRatio="xMidYMid meet" version="1.0"><path fill="#0a24e3" d="M 535.746094 182.492188 L 521.167969 207.738281 L 401.152344 415.636719 L 281.136719 207.738281 L 266.558594 182.492188 C 189.203125 228.527344 137.363281 312.902344 137.363281 409.292969 C 137.363281 554.957031 255.488281 673.082031 401.152344 673.082031 C 546.816406 673.082031 664.941406 554.957031 664.941406 409.292969 C 664.941406 312.902344 613.101562 228.527344 535.746094 182.492188 Z M 535.746094 182.492188 " fill-opacity="1" fill-rule="nonzero"/><path fill="#6dccf2" d="M 535.746094 182.492188 L 641.183594 -0.0273438 L 161.121094 -0.0273438 L 266.558594 182.492188 C 305.976562 159.003906 352.011719 145.503906 401.152344 145.503906 C 450.292969 145.503906 496.328125 159.136719 535.746094 182.492188 Z M 535.746094 182.492188 " fill-opacity="1" fill-rule="nonzero"/><path fill="#f7f5f2" d="M 401.152344 415.773438 L 521.167969 207.871094 L 535.746094 182.628906 C 496.328125 159.136719 450.292969 145.636719 401.152344 145.636719 C 352.011719 145.636719 305.976562 159.136719 266.558594 182.628906 L 281.136719 207.871094 Z M 401.152344 415.773438 " fill-opacity="1" fill-rule="nonzero"/><path fill="#e3664f" d="M 581.949219 663.398438 L 663.375 581.972656 L 810.003906 728.597656 L 728.574219 810.023438 Z M 581.949219 663.398438 " fill-opacity="1" fill-rule="nonzero"/></svg>